<svg width="550" height="1505" viewBox="0 0 550 1505" fill="none" xmlns="http://www.w3.org/2000/svg">
<path d="M547.5 7V4" stroke="black" stroke-linecap="round" stroke-linejoin="round"/>
<path d="M549 5.5H546" stroke="black" stroke-linecap="round" stroke-linejoin="round"/>
<path d="M544.5 1.5V3.5" stroke="black" stroke-linecap="round" stroke-linejoin="round"/>
<path d="M545.5 2.5H543.5" stroke="black" stroke-linecap="round" stroke-linejoin="round"/>
<path d="M547.544 9.53749C546.562 9.81277 545.525 9.82179 544.538 9.56363C543.552 9.30546 542.652 8.78943 541.931 8.06851C541.211 7.34759 540.694 6.44777 540.436 5.46146C540.178 4.47516 540.187 3.43791 540.462 2.45624C539.495 2.72562 538.614 3.24388 537.909 3.95938C537.204 4.67489 536.698 5.56268 536.443 6.53432C536.188 7.50595 536.191 8.52753 536.454 9.49729C536.716 10.4671 537.228 11.3512 537.938 12.0615C538.649 12.7719 539.533 13.2838 540.503 13.5461C541.472 13.8085 542.494 13.8122 543.466 13.5569C544.437 13.3015 545.325 12.7961 546.041 12.0909C546.756 11.3857 547.274 10.5053 547.544 9.53749Z" stroke="black" stroke-linecap="round" stroke-linejoin="round"/>
<path d="M13.5 1496V1493" stroke="black" stroke-linecap="round" stroke-linejoin="round"/>
<path d="M15 1494.5H12" stroke="black" stroke-linecap="round" stroke-linejoin="round"/>
<path d="M10.5 1490.5V1492.5" stroke="black" stroke-linecap="round" stroke-linejoin="round"/>
<path d="M11.5 1491.5H9.5" stroke="black" stroke-linecap="round" stroke-linejoin="round"/>
<path d="M13.5436 1498.54C12.562 1498.81 11.5247 1498.82 10.5384 1498.56C9.55211 1498.31 8.65229 1497.79 7.93137 1497.07C7.21045 1496.35 6.69442 1495.45 6.43626 1494.46C6.1781 1493.48 6.18712 1492.44 6.46239 1491.46C5.49456 1491.73 4.61419 1492.24 3.90898 1492.96C3.20377 1493.67 2.69833 1494.56 2.44301 1495.53C2.18769 1496.51 2.19139 1497.53 2.45375 1498.5C2.71611 1499.47 3.22797 1500.35 3.93835 1501.06C4.64872 1501.77 5.53282 1502.28 6.50259 1502.55C7.47235 1502.81 8.49393 1502.81 9.46556 1502.56C10.4372 1502.3 11.325 1501.8 12.0405 1501.09C12.756 1500.39 13.2743 1499.51 13.5436 1498.54Z" stroke="black" stroke-linecap="round" stroke-linejoin="round"/>
</svg>
